<svg xmlns="http://www.w3.org/2000/svg" width="568" height="468" viewBox="0 0 568 468"><defs><style>.a,.y{fill:none;}.b{fill:#bedcf6;}.c{fill:#dfe6e9;}.d{fill:#f8fafb;}.e{fill:#e0e0e0;}.f,.x{fill:#fff;}.g{fill:#fafafa;}.h{fill:#ebebeb;}.i{fill:#f5f5f5;}.j{fill:#eff2f3;}.k{fill:#041b31;}.l{fill:#1773cd;}.m{opacity:0.4;}.n{opacity:0.2;}.o,.w{fill:#66aef5;}.p{fill:#455a64;}.q{fill:#263238;}.r{fill:#eb996e;}.s{fill:#d1734a;}.t{opacity:0.6;}.u{fill:#e8505b;}.v{opacity:0.3;}.w,.y{fill-rule:evenodd;}.x{stroke:#062747;}.y{stroke:#66aef5;stroke-linecap:round;stroke-width:5.98px;}</style></defs><g transform="translate(3333 23619)"><rect class="a" width="568" height="468" transform="translate(-3333 -23619)"/><path class="b" d="M234,0C363.235,0,468,104.765,468,234S363.235,468,234,468,0,363.235,0,234,104.765,0,234,0Z" transform="translate(-3233 -23619)"/><g transform="translate(-3179.071 -23595.09)"><g transform="translate(5.394 0)"><g transform="translate(0 56.412)"><path class="c" d="M353.48,87.055v65.688h94.346l3.4-65.229Z" transform="translate(-353.48 -87.055)"/><g transform="translate(2.952 0.012)"><g transform="translate(0.448 0.448)"><rect class="d" width="65.09" height="94.346" transform="translate(0 65.09) rotate(-90)"/></g><path class="e" d="M353.032,153.053h95.241V87.067H353.032Zm94.346-.895H353.927v-64.2h93.451Z" transform="translate(-353.032 -87.067)"/></g><g transform="translate(13.432 8.333)"><g transform="translate(0.186 0.214)"><rect class="f" width="73.909" height="48.916" transform="translate(0)"/></g><path class="c" d="M363.651,95.6s.127.008.364.013l1.051.012,4.059.026,15.231.058,53.2.105-.214-.214c-.006,14.946-.012,31.5-.019,48.91v.006l.233-.233-73.909.048.186.185c-.041-14.886-.075-27.091-.1-35.591-.021-4.247-.037-7.566-.047-9.841q-.014-1.686-.021-2.587c-.007-.586-.02-.9-.02-.9s-.014.285-.02.858q-.007.888-.021,2.552c-.011,2.265-.027,5.57-.047,9.8-.024,8.527-.057,20.772-.1,35.706v.186h.186l73.909.047h.233v-.24c-.007-17.4-.013-33.964-.019-48.91v-.214h-.214l-53.344.1-15.183.058-4.016.026-1.027.012C363.761,95.594,363.651,95.6,363.651,95.6Z" transform="translate(-363.465 -95.388)"/></g><g transform="translate(87.524 0.272)"><path class="e" d="M363.7,87.332a8.033,8.033,0,0,0-1.622,1.051c-.965.7-2.279,1.685-3.7,2.821s-2.668,2.211-3.547,3.015A7.643,7.643,0,0,0,353.48,95.6c.088.1,2.356-1.772,5.189-4.034A51.335,51.335,0,0,0,363.7,87.332Z" transform="translate(-353.478 -87.328)"/></g><g transform="translate(3.397 0.455)"><path class="c" d="M437.607,87.515a45.759,45.759,0,0,0,4.964,4.226,45.637,45.637,0,0,0,5.254,3.861,45.718,45.718,0,0,0-4.965-4.226A45.831,45.831,0,0,0,437.607,87.515Z" transform="translate(-437.605 -87.511)"/></g><g transform="translate(3.471 57.03)"><g transform="translate(0.002 0.004)"><path class="f" d="M437.232,152.615l10.519-8.526" transform="translate(-437.232 -144.089)"/></g><path class="c" d="M447.751,144.089a49.481,49.481,0,0,0-5.406,4.082,49.31,49.31,0,0,0-5.113,4.444,49.55,49.55,0,0,0,5.407-4.082A49.363,49.363,0,0,0,447.751,144.089Z" transform="translate(-437.23 -144.085)"/></g><g transform="translate(87.628 57.546)"><path class="c" d="M363.594,152.6a44.761,44.761,0,0,0-4.912-4.182,44.773,44.773,0,0,0-5.2-3.817,44.9,44.9,0,0,0,4.913,4.183A44.774,44.774,0,0,0,363.594,152.6Z" transform="translate(-353.478 -144.602)"/></g><g transform="translate(26.015 23.787)"><rect class="c" width="16.379" height="46.505" transform="translate(0 16.379) rotate(-90)"/></g></g><g transform="translate(213.381)"><g transform="translate(61.82)"><path class="c" d="M190.409,50.244a.791.791,0,0,1-.233-.071l-.662-.261-2.524-1.05-9.242-3.957L147.341,31.658l-1.054-.462h.219L116.712,43.937,107.7,47.725l-2.458,1a5.9,5.9,0,0,1-.871.316,5.973,5.973,0,0,1,.828-.416l2.417-1.1,8.947-3.947,29.729-12.892.109-.048.11.048,1.054.463,30.343,13.394,9.171,4.118,2.483,1.145.64.31A.828.828,0,0,1,190.409,50.244Z" transform="translate(-104.368 -30.643)"/></g><g transform="translate(0 15.235)"><rect class="c" width="195.295" height="146.228"/></g><g transform="translate(6.827 22.034)"><rect class="g" width="182.374" height="133.419"/></g><g transform="translate(47.11 80.325)"><path class="c" d="M89.658,110.968s.19,22.4,1.329,29.231l28.091-1.329s-2.467-22.018-1.518-27.9Z" transform="translate(-89.658 -110.968)"/><g transform="translate(7.547 3.138)"><path class="f" d="M103.494,114.136a.379.379,0,0,1,.1-.011l.3-.012a6.866,6.866,0,0,1,1.169.058,6.415,6.415,0,0,1,1.786.531,5.857,5.857,0,0,1,1.944,1.538,6.75,6.75,0,0,1,1.347,2.705,6.521,6.521,0,0,1-.3,3.471,10.244,10.244,0,0,1-.789,1.734,18.265,18.265,0,0,0-.9,1.753,15.028,15.028,0,0,0-1.136,3.986l-.012.093-.091,0-2.774.045-2.909.045h-.1l0-.1a8.309,8.309,0,0,0-1.349-3.84c-.337-.575-.706-1.115-1.051-1.661a16.266,16.266,0,0,1-.987-1.609,5.418,5.418,0,0,1-.44-3.422,7.3,7.3,0,0,1,1.083-2.8,5.425,5.425,0,0,1,1.829-1.646,6.871,6.871,0,0,1,1.725-.667,7.471,7.471,0,0,1,1.147-.187c.132-.007.233-.012.3-.011a.346.346,0,0,1,.1.007.552.552,0,0,1-.1.013l-.3.031a8.417,8.417,0,0,0-1.132.221,7.007,7.007,0,0,0-1.69.689,5.343,5.343,0,0,0-1.767,1.63,7.208,7.208,0,0,0-1.036,2.747,5.26,5.26,0,0,0,.445,3.312,16.439,16.439,0,0,0,.984,1.588c.342.537.717,1.082,1.06,1.661a8.47,8.47,0,0,1,1.385,3.939l-.106-.1,2.909-.047,2.774-.044-.1.1a15.141,15.141,0,0,1,1.16-4.047,18.424,18.424,0,0,1,.914-1.766,10.114,10.114,0,0,0,.782-1.7,6.381,6.381,0,0,0,.309-3.376,6.654,6.654,0,0,0-1.293-2.65,5.768,5.768,0,0,0-1.884-1.527,6.494,6.494,0,0,0-1.748-.555,7.879,7.879,0,0,0-1.158-.094l-.3-.008A.475.475,0,0,1,103.494,114.136Z" transform="translate(-97.205 -114.106)"/><g transform="translate(2.897 5.36)"><path class="f" d="M104.935,129.739s-.007-.03-.017-.088l-.043-.261c-.035-.233-.087-.57-.153-1-.126-.871-.313-2.133-.439-3.705-.029-.393-.057-.805-.073-1.235s-.032-.878-.007-1.343a3.747,3.747,0,0,1,.316-1.4,2.131,2.131,0,0,1,1.072-1.073,1.435,1.435,0,0,1,1.529.291,1.067,1.067,0,0,1,.327.769,1.366,1.366,0,0,1-.287.805,1.819,1.819,0,0,1-.676.546,3.569,3.569,0,0,1-.834.277,10.093,10.093,0,0,1-1.773.206,10.263,10.263,0,0,1-1.784-.086,3.379,3.379,0,0,1-.846-.244,2.185,2.185,0,0,1-.708-.5,1.642,1.642,0,0,1-.407-.751,1.268,1.268,0,0,1,.1-.832,1.134,1.134,0,0,1,.587-.572,1.015,1.015,0,0,1,.8.038,1.5,1.5,0,0,1,.6.507,2.052,2.052,0,0,1,.3.7,8.47,8.47,0,0,1,.142,1.433c.048.925.093,1.786.134,2.573.079,1.57.143,2.842.188,3.725.02.438.036.778.047,1.013l.01.264c0,.059,0,.09,0,.09s-.005-.03-.009-.089-.011-.151-.019-.263c-.015-.236-.036-.576-.063-1.013-.051-.883-.125-2.154-.216-3.724-.044-.786-.092-1.647-.144-2.572a8.453,8.453,0,0,0-.145-1.418,1.989,1.989,0,0,0-.288-.673,1.428,1.428,0,0,0-.565-.479.929.929,0,0,0-.736-.034,1.046,1.046,0,0,0-.543.531,1.191,1.191,0,0,0-.093.778,1.557,1.557,0,0,0,.388.711,2.529,2.529,0,0,0,1.505.72,10.242,10.242,0,0,0,1.767.085,9.982,9.982,0,0,0,1.757-.2,3.511,3.511,0,0,0,.815-.269,1.751,1.751,0,0,0,.646-.52,1.286,1.286,0,0,0,.271-.754.982.982,0,0,0-.3-.709,1.352,1.352,0,0,0-1.44-.276,2.055,2.055,0,0,0-1.033,1.031,3.7,3.7,0,0,0-.313,1.376c-.026.46-.009.908,0,1.336s.039.841.067,1.233c.117,1.57.295,2.833.411,3.706l.137,1.005.034.261C104.934,129.708,104.935,129.739,104.935,129.739Z" transform="translate(-100.101 -119.466)"/></g><g transform="translate(4.014 15.516)"><path class="f" d="M101.237,129.887c.014.013.037.349.073.934q.053,1.016.125,2.433l-.023-.059,1.891,2.179-.1-.041,2.186-.124-.092.047,1.089-1.33.546-.664-.029.085c-.03-1.281-.058-2.495-.083-3.6l.119.113-4.085.045h-1.18a3.063,3.063,0,0,1-.44-.016,1.981,1.981,0,0,1,.389-.037l1.153-.06,4.157-.164.116,0,0,.118c.033,1.106.069,2.319.108,3.6v.048l-.03.038c-.18.218-.362.441-.546.665l-1.091,1.327-.036.044-.057,0-2.186.107-.06,0-.038-.044-1.855-2.21-.023-.027v-.033q-.015-1.453-.024-2.5A7.3,7.3,0,0,1,101.237,129.887Z" transform="translate(-101.219 -129.622)"/></g><g transform="translate(4.218 18.243)"><path class="f" d="M106.88,133.051a1.246,1.246,0,0,1-.208-.088c-.131-.059-.324-.141-.567-.224a5.53,5.53,0,0,0-3.927.119c-.238.1-.426.191-.553.259a1.257,1.257,0,0,1-.2.1,1.056,1.056,0,0,1,.185-.129,4.4,4.4,0,0,1,.545-.286,5.251,5.251,0,0,1,3.973-.121,4.363,4.363,0,0,1,.561.252A1,1,0,0,1,106.88,133.051Z" transform="translate(-101.423 -132.349)"/></g><g transform="translate(4.218 17.368)"><path class="f" d="M106.879,132.176a1.221,1.221,0,0,1-.207-.088c-.132-.059-.324-.141-.568-.224a5.523,5.523,0,0,0-3.927.12c-.238.1-.425.191-.553.258a1.174,1.174,0,0,1-.2.1,1.03,1.03,0,0,1,.184-.129,4.493,4.493,0,0,1,.546-.286,5.248,5.248,0,0,1,3.972-.121,4.439,4.439,0,0,1,.561.252A1,1,0,0,1,106.879,132.176Z" transform="translate(-101.423 -131.474)"/></g><g transform="translate(4.166 16.536)"><path class="f" d="M106.827,131.344a1.257,1.257,0,0,1-.207-.087c-.132-.06-.324-.142-.567-.225a5.526,5.526,0,0,0-3.928.12c-.238.1-.425.191-.552.258a1.338,1.338,0,0,1-.2.1.973.973,0,0,1,.185-.13,4.611,4.611,0,0,1,.545-.286,5.248,5.248,0,0,1,3.972-.121,4.686,4.686,0,0,1,.562.252A.985.985,0,0,1,106.827,131.344Z" transform="translate(-101.371 -130.642)"/></g></g></g><g transform="translate(15.824 43.711)"><path class="c" d="M58.372,74.354s.19,22.4,1.329,29.23l28.091-1.328s-2.467-22.018-1.518-27.9Z" transform="translate(-58.372 -74.354)"/><g transform="translate(4.817 9.345)"><path class="f" d="M82.04,83.762a81.1,81.1,0,0,1-9.408.842,81.177,81.177,0,0,1-9.443.292,81.074,81.074,0,0,1,9.41-.842A81.136,81.136,0,0,1,82.04,83.762Z" transform="translate(-63.189 -83.699)"/></g><g transform="translate(4.825 14.089)"><path class="f" d="M82.047,88.506a81.037,81.037,0,0,1-9.408.842,81.156,81.156,0,0,1-9.442.292,81.073,81.073,0,0,1,9.409-.842A81.14,81.14,0,0,1,82.047,88.506Z" transform="translate(-63.197 -88.443)"/></g><g transform="translate(8.161 18.709)"><path class="f" d="M77.273,93.164a26.554,26.554,0,0,1-5.354.6,26.519,26.519,0,0,1-5.386.048,26.438,26.438,0,0,1,5.353-.6A26.533,26.533,0,0,1,77.273,93.164Z" transform="translate(-66.533 -93.063)"/></g></g><g transform="translate(14.494 109.605)"><path class="h" d="M57.042,140.248s.19,22.4,1.329,29.23l28.091-1.329s-2.467-22.017-1.518-27.9Z" transform="translate(-57.042 -140.248)"/><g transform="translate(4.817 9.344)"><path class="f" d="M80.71,149.655a81.064,81.064,0,0,1-9.408.842,81.176,81.176,0,0,1-9.443.292,81.218,81.218,0,0,1,9.41-.841A81.286,81.286,0,0,1,80.71,149.655Z" transform="translate(-61.859 -149.592)"/></g><g transform="translate(4.825 14.088)"><path class="f" d="M80.718,154.4a81.106,81.106,0,0,1-9.409.842,81.159,81.159,0,0,1-9.442.292,81.6,81.6,0,0,1,9.409-.842A81.424,81.424,0,0,1,80.718,154.4Z" transform="translate(-61.867 -154.336)"/></g><g transform="translate(8.161 18.708)"><path class="f" d="M75.943,159.057a26.464,26.464,0,0,1-5.353.6,26.442,26.442,0,0,1-5.387.048,26.539,26.539,0,0,1,5.354-.6A26.521,26.521,0,0,1,75.943,159.057Z" transform="translate(-65.203 -158.956)"/></g></g><g transform="translate(83.885 44.675)"><g transform="translate(7.378 4.973)"><path class="c" d="M133.811,80.291l2.783,64.6,80.643.973-3.62-64.718Z" transform="translate(-133.811 -80.291)"/></g><g transform="translate(6.168 4.234)"><g transform="translate(0.276 0.276)"><rect class="d" width="80.107" height="60.489"/></g><path class="e" d="M212.983,140.317s-.016-.39-.024-1.122q-.009-1.124-.026-3.228c-.013-2.836-.033-6.968-.058-12.24-.028-10.547-.069-25.64-.118-43.9l.226.226-80.1.049h-.006l.275-.275c-.01,21.754-.019,42.353-.027,60.488l-.248-.248,57.782.124,16.434.066,4.368.03,1.13.014c.256.005.392.015.392.015s-.117.009-.363.014l-1.1.014-4.319.03-16.377.066-57.944.124h-.249v-.249c-.008-18.135-.017-38.734-.027-60.488v-.276h.282l80.1.049h.227v.226c-.049,18.318-.09,33.459-.118,44.041-.025,5.25-.045,9.364-.058,12.189q-.017,2.074-.026,3.185C213,139.96,212.983,140.317,212.983,140.317Z" transform="translate(-132.601 -79.552)"/><g transform="translate(9.603 12.81)"><g transform="translate(0.336 0.28)"><rect class="i" width="32.473" height="40.869"/></g><path class="e" d="M175.014,133.511a1.217,1.217,0,0,1-.015-.206l-.014-.582q-.011-.807-.029-2.235c-.016-1.974-.038-4.807-.066-8.384-.03-7.194-.073-17.374-.123-29.462l.246.247-32.469.029c-.066.058.518-.517.272-.268v5.612q0,2.784,0,5.507c0,3.629-.006,7.171-.009,10.605-.012,6.864-.024,13.3-.034,19.137l-.229-.229,23.512.119,6.6.059,1.749.026c.4.008.617.025.617.025a4.61,4.61,0,0,1-.568.025l-1.705.026-6.545.059-23.656.119h-.228v-.23c-.01-5.84-.022-12.273-.034-19.137,0-3.434-.006-6.976-.009-10.605q0-2.722,0-5.507V92.65c-.246.243.333-.345.279-.283l32.469.029h.248v.246c-.05,12.154-.093,22.389-.123,29.622-.028,3.553-.05,6.367-.066,8.328q-.018,1.4-.029,2.187c-.006.226-.01.406-.014.554A.842.842,0,0,1,175.014,133.511Z" transform="translate(-142.204 -92.362)"/></g><g transform="translate(10.882 3.463)"><g transform="translate(0.301 0.276)"><rect class="i" width="62.234" height="5.889"/></g><path class="c" d="M206.018,89.179a3.31,3.31,0,0,1-.022-.4c-.007-.287-.015-.664-.026-1.142-.015-1.023-.036-2.477-.064-4.343l.112.111c-10.5.1-34.418.164-62.231.164h0c.55-.55.153-.152.275-.274h0v2.994c0,.986,0,1.954,0,2.892l-.274-.274,44.113.117,13.24.081,3.6.039.945.018a2.725,2.725,0,0,1,.334.019,1.5,1.5,0,0,1-.3.019l-.908.019-3.541.038-13.175.082-44.313.117h-.274v-.275c0-.938,0-1.906,0-2.892V83.293h0c.123-.123-.276.274.275-.277h0c27.813,0,51.735.068,62.231.164h.113l0,.111c-.027,1.894-.048,3.369-.063,4.407-.011.468-.02.837-.027,1.118A2.175,2.175,0,0,1,206.018,89.179Z" transform="translate(-143.483 -83.015)"/></g><g transform="translate(46.052 12.811)"><g transform="translate(0.336 0.28)"><rect class="i" width="27.028" height="24.631"/></g><path class="c" d="M206.018,117.274a3.475,3.475,0,0,1-.026-.477l-.027-1.336c-.015-1.205-.036-2.893-.061-5.021-.03-4.334-.071-10.453-.121-17.8l.235.235-27.026.041c-.063.059.519-.52.273-.272v3.332q0,1.656,0,3.28,0,3.249-.006,6.354c-.009,4.132-.017,8.047-.025,11.662l-.242-.242,19.5.122,5.531.064,1.475.028a3.93,3.93,0,0,1,.526.028,2.9,2.9,0,0,1-.472.027l-1.429.028-5.476.064-19.652.122-.241,0v-.243c-.007-3.615-.016-7.53-.024-11.662q0-3.1-.007-6.354,0-1.625,0-3.28V92.646c-.246.244.334-.34.278-.279l27.026.041h.236l0,.234c-.049,7.407-.091,13.576-.12,17.946-.026,2.107-.047,3.777-.061,4.968-.011.536-.02.963-.027,1.292A2.579,2.579,0,0,1,206.018,117.274Z" transform="translate(-178.653 -92.363)"/></g><g transform="translate(46.109 41.246)"><g transform="translate(0.28 0.337)"><rect class="c" width="27.028" height="12.376"/></g><g transform="translate(0)"><path class="c" d="M206.018,133.511a8.146,8.146,0,0,1-.043-.9l-.05-2.485c-.026-2.184-.062-5.242-.107-8.994l.2.2-27.027.075c-.247.246.333-.335.274-.274v3.227q0,1.6,0,3.152c0,2.069-.007,4.076-.01,6l-.262-.262,19.328.125,5.632.072,1.522.033a4,4,0,0,1,.547.032,2.562,2.562,0,0,1-.485.032l-1.467.033-5.573.072-19.5.124-.261,0v-.263c0-1.92-.007-3.927-.011-6q0-1.554,0-3.152,0-.8,0-1.606v-1.621c-.06.059.522-.523.277-.277l27.027.076h.2l0,.2c-.045,3.8-.082,6.9-.108,9.115-.021,1.017-.037,1.829-.05,2.441A5.907,5.907,0,0,1,206.018,133.511Z" transform="translate(-178.71 -120.798)"/></g></g><g transform="translate(9.937 13.16)"><g transform="translate(0.002 0.001)"><path class="f" d="M174.21,92.713c-10.052,13.886-21.618,26.912-31.67,40.8" transform="translate(-142.54 -92.713)"/></g><path class="c" d="M142.54,133.511a1.962,1.962,0,0,1,.265-.456l.849-1.244c.743-1.077,1.854-2.609,3.251-4.484,2.79-3.753,6.783-8.832,11.255-14.386s8.51-10.592,11.376-14.281l3.388-4.374.931-1.182a1.952,1.952,0,0,1,.355-.391,1.915,1.915,0,0,1-.265.456l-.849,1.244c-.742,1.077-1.854,2.608-3.25,4.483-2.79,3.754-6.784,8.833-11.257,14.389s-8.508,10.589-11.374,14.278l-3.388,4.375-.932,1.182C142.677,133.387,142.556,133.522,142.54,133.511Z" transform="translate(-142.538 -92.712)"/></g><g transform="translate(9.938 13.089)"><g transform="translate(0.002 0.001)"><line class="f" x2="32.473" y2="40.869"/></g><path class="c" d="M175.014,133.511c-.12.1-7.486-8.978-16.452-20.262S142.421,92.737,142.54,92.642s7.484,8.977,16.453,20.264S175.133,133.416,175.014,133.511Z" transform="translate(-142.539 -92.641)"/></g></g><g transform="translate(0 12.331)"><path class="c" d="M136.593,92.729a5.08,5.08,0,1,1-5.08-5.08A5.079,5.079,0,0,1,136.593,92.729Z" transform="translate(-126.433 -87.649)"/></g><g transform="translate(83.087)"><g transform="translate(0)"><path class="c" d="M219.681,80.4a5.08,5.08,0,1,1-5.08-5.08A5.08,5.08,0,0,1,219.681,80.4Z" transform="translate(-209.52 -75.318)"/></g></g></g></g><g transform="translate(-22 402.02)"><g transform="translate(0 -0.001)"><g transform="translate(0.1)"><path class="f" d="M367.1,432.662v22.772h-3.8v2.472h3.8v15.241h71.072V459.279h-5.265v-3.021h5.265v-4.531h2.339v-2.06h-2.778v-17Z" transform="translate(-363.298 -432.662)"/></g><g transform="translate(56.1 0)"><path class="c" d="M419.3,432.728v40.164h18.873V459.025h-5.265v-2.767l5.265.094v-4.531l2.385,0-.046-2.342-2.778-.068V432.662Z" transform="translate(-419.298 -432.662)"/></g><g transform="translate(0 24.665)"><path class="c" d="M420.643,457.579c0,.139-12.861.252-28.721.252s-28.724-.113-28.724-.252,12.858-.252,28.724-.252S420.643,457.44,420.643,457.579Z" transform="translate(-363.198 -457.327)"/></g><g transform="translate(0 22.352)"><path class="c" d="M420.643,455.266c0,.139-12.861.252-28.721.252s-28.724-.113-28.724-.252,12.858-.252,28.724-.252S420.643,455.127,420.643,455.266Z" transform="translate(-363.198 -455.014)"/></g><g transform="translate(3.689 16.126)"><path class="c" d="M424.332,449.04c0,.14-12.86.253-28.721.253s-28.724-.113-28.724-.253,12.858-.252,28.724-.252S424.332,448.9,424.332,449.04Z" transform="translate(-366.887 -448.788)"/></g><g transform="translate(4.044 33.09)"><path class="c" d="M424.687,466.005c0,.139-12.861.252-28.721.252s-28.724-.113-28.724-.252,12.858-.252,28.724-.252S424.687,465.866,424.687,466.005Z" transform="translate(-367.242 -465.753)"/></g></g></g><g transform="translate(236.585 188.762)"><g transform="translate(0.995 105.756)"><path class="j" d="M213.235,360.414H159.018a6.908,6.908,0,0,1-6.908-6.908V336.8a11.64,11.64,0,0,1,11.641-11.64h49.894Z" transform="translate(-152.11 -325.161)"/></g><g transform="translate(3.558 141.009)"><path class="j" d="M99.218,370.92H205.829a5.253,5.253,0,0,0,5.253-5.253h0a5.253,5.253,0,0,0-5.253-5.253H99.218a5.253,5.253,0,0,0-5.253,5.253h0A5.253,5.253,0,0,0,99.218,370.92Z" transform="translate(-93.965 -360.414)"/></g><g transform="translate(41.267)"><path class="c" d="M159.519,220.443l-58.65-1.038-37.23,140.7,79.408.8,29.929-123.347A13.847,13.847,0,0,0,159.519,220.443Z" transform="translate(-63.639 -219.405)"/></g><g transform="translate(97.602 151.515)"><path class="j" d="M99.488,370.92,117.037,472.9H112.23L89.158,370.92Z" transform="translate(-89.158 -370.92)"/></g><g transform="translate(56.23 151.515)"><path class="c" d="M139.761,370.92,158.41,472.9H153.6L129.43,370.92Z" transform="translate(-129.43 -370.92)"/></g><g transform="translate(0 151.515)"><path class="j" d="M204.309,370.92,183.5,472.9h4.807L214.64,370.92Z" transform="translate(-183.504 -370.92)"/></g><g transform="translate(33.926)"><path class="j" d="M180.714,219.4,151.689,360.256H129.43L152.7,235.8A20.045,20.045,0,0,1,172.414,219.4Z" transform="translate(-129.43 -219.405)"/></g></g></g><g transform="translate(0 442.553)"><path class="k" d="M43.381,474.2c0,.549,104.587,1,233.572,1,129.03,0,233.595-.449,233.595-1s-104.565-1-233.595-1C147.968,473.2,43.381,473.645,43.381,474.2Z" transform="translate(-97.31 -473.659)"/></g><g transform="translate(250.294 375.189)"><g transform="translate(0 -0.001)"><g transform="translate(0 11.8)"><path class="l" d="M194.526,473.746H118.067l5.785-55.659,70.673-.455Z" transform="translate(-118.067 -417.632)"/></g><g class="m" transform="translate(-5 11.8)"><path d="M194.526,473.746H118.067l5.785-55.659,70.673-.455Z" transform="translate(-113.067 -417.632)"/></g><g transform="translate(11.149 11.8)"><rect class="l" width="76.458" height="56.114"/></g><g class="n" transform="translate(11.149 11.8)"><rect class="l" width="76.458" height="56.114"/></g><g transform="translate(11.415 38.704)"><path class="k" d="M206.325,444.8c0,.144-17.2.261-38.42.261s-38.423-.117-38.423-.261,17.2-.26,38.423-.26S206.325,444.652,206.325,444.8Z" transform="translate(-129.482 -444.535)"/></g><g transform="translate(24.512 35.963)"><g transform="translate(0)"><path class="k" d="M142.84,450.2a33.956,33.956,0,0,1,0-8.4,34.085,34.085,0,0,1,0,8.4Z" transform="translate(-142.579 -441.794)"/></g></g><g transform="translate(77.642 36.563)"><g transform="translate(0)"><path class="k" d="M195.969,449.9a27.2,27.2,0,0,1,0-7.5,27.1,27.1,0,0,1,0,7.5Z" transform="translate(-195.709 -442.394)"/></g></g><g transform="translate(30.922)"><path class="k" d="M179.162,417.918c-.052,0-.012-.6-.185-1.661a10.54,10.54,0,0,0-1.693-4.149,12.238,12.238,0,0,0-5.053-4.236,18,18,0,0,0-7.99-1.512,19.552,19.552,0,0,0-7.954,1.789,13.223,13.223,0,0,0-5.1,4.21,11.381,11.381,0,0,0-1.874,4.082c-.237,1.046-.247,1.649-.3,1.646a1.4,1.4,0,0,1-.025-.438,7.229,7.229,0,0,1,.123-1.248,10.841,10.841,0,0,1,1.771-4.253,13.3,13.3,0,0,1,5.194-4.43,19.59,19.59,0,0,1,8.151-1.879,18.139,18.139,0,0,1,8.207,1.6,12.376,12.376,0,0,1,5.156,4.468,10.131,10.131,0,0,1,1.587,4.324,6.8,6.8,0,0,1,.041,1.255A1.378,1.378,0,0,1,179.162,417.918Z" transform="translate(-148.989 -405.832)"/></g></g></g><g transform="translate(287.427 122.457)"><g transform="translate(0 0)"><g transform="translate(34.984 46.346)"><path class="o" d="M150.483,201.2a18.887,18.887,0,0,1,11.72-1.424c2.126.351,4.343.987,5.79,2.584s1.721,4.408.06,5.781a5.557,5.557,0,0,1-3.651.926c-3.1-.036-6.536-.582-9.011,1.282-1.412,1.064-2.352,2.832-4.041,3.355a3.99,3.99,0,0,1-4.391-1.954,6.824,6.824,0,0,1-.5-5.035A7.687,7.687,0,0,1,150.483,201.2Z" transform="translate(-146.208 -199.446)"/></g><g transform="translate(29.033)"><path class="l" d="M142.316,185.434c2.179,3.114,6.416,2.083,8.381.183s2.794-4.655,3.55-7.281c1.727-6,3.468-12.3,2.184-18.408a10.233,10.233,0,0,0-2.351-5.005,5.344,5.344,0,0,0-5.063-1.685c-2.136.565-3.464,2.657-4.423,4.647a43.877,43.877,0,0,0-4.337,18.831c-.01,3.033.347,6.214,2.059,8.718" transform="translate(-140.257 -153.1)"/></g><g transform="translate(0 10.018)"><path class="o" d="M136.329,189.9a11.329,11.329,0,0,0,1.763-10.425,20.092,20.092,0,0,0-6.174-8.957A33.249,33.249,0,0,0,120.861,164a11.794,11.794,0,0,0-4.973-.845,5.22,5.22,0,0,0-4.173,2.525c-1.164,2.219-.048,4.911,1.159,7.107a84.209,84.209,0,0,0,7.262,11.059c2.177,2.807,4.67,5.575,7.988,6.843s6.763,1.119,8.521-1.182" transform="translate(-111.224 -163.118)"/></g><g transform="translate(30.904 50.67)"><path class="k" d="M142.168,232.4a6.77,6.77,0,0,0,.2-1.414c.1-1.03.226-2.323.376-3.861a55.851,55.851,0,0,1,.868-5.663,43.66,43.66,0,0,1,2.059-6.684,24.608,24.608,0,0,1,3.413-6.048,12.742,12.742,0,0,1,4.315-3.587,12.064,12.064,0,0,1,3.634-1.132,6.821,6.821,0,0,0,1.408-.2,6.632,6.632,0,0,0-1.433-.022,11,11,0,0,0-3.789.986,12.72,12.72,0,0,0-4.552,3.619,24.066,24.066,0,0,0-3.538,6.169,40.893,40.893,0,0,0-2.044,6.793,48.12,48.12,0,0,0-.753,5.735c-.122,1.639-.168,2.967-.191,3.885A6.634,6.634,0,0,0,142.168,232.4Z" transform="translate(-142.128 -203.769)"/></g><g transform="translate(30.904 12.51)"><g transform="translate(0)"><path class="k" d="M142.434,229.428a2.778,2.778,0,0,0,.038-.656c0-.493,0-1.115-.005-1.877,0-1.629,0-3.987.083-6.9.145-5.822.646-12.089,1.614-20.923.917-8.307,2.148-17.974,3.447-24.26.278-1.429.559-2.716.823-3.842s.467-2.1.674-2.89c.178-.741.323-1.345.439-1.824a2.733,2.733,0,0,0,.114-.648,2.791,2.791,0,0,0-.228.615c-.143.473-.323,1.068-.545,1.8-.242.78-.489,1.747-.772,2.872s-.6,2.405-.909,3.832a212.953,212.953,0,0,0-3.623,22.511c-.971,8.853-1.408,16.913-1.446,22.75-.035,2.919.027,5.281.1,6.911.046.763.084,1.384.114,1.876A2.783,2.783,0,0,0,142.434,229.428Z" transform="translate(-142.128 -165.61)"/></g></g><g transform="translate(10.453 17.263)"><path class="k" d="M142.473,213.882a12.635,12.635,0,0,0-.014-1.961c-.072-1.26-.245-3.082-.6-5.313a70.2,70.2,0,0,0-1.728-7.74,63.378,63.378,0,0,0-3.237-9.159,48.792,48.792,0,0,0-9.506-14.8,24.079,24.079,0,0,0-2.236-2.078c-.343-.29-.646-.58-.955-.809l-.868-.6a12.58,12.58,0,0,0-1.65-1.057,58.808,58.808,0,0,1,5.411,4.828,51.413,51.413,0,0,1,9.268,14.748,72.331,72.331,0,0,1,3.255,9.074,78.779,78.779,0,0,1,1.839,7.664c.4,2.209.639,4.012.781,5.26A12.625,12.625,0,0,0,142.473,213.882Z" transform="translate(-121.676 -170.363)"/></g><g transform="translate(16.222 88.207)"><path class="o" d="M127.446,241.306,129,262.648h27.418l1.558-21.342Z" transform="translate(-127.446 -241.306)"/></g><g transform="translate(13.574 79.794)"><rect class="o" width="36.453" height="8.412"/></g><g transform="translate(13.574 108.732)"><path class="l" d="M124.8,261.832v2.332h35.851v-2.332Z" transform="translate(-124.798 -261.832)"/></g><g transform="translate(15.287 111.064)"><path class="l" d="M128.19,268.267l-1.679-4.1h32.832l-1.959,4.1Z" transform="translate(-126.511 -264.164)"/></g><g transform="translate(16.684 92.183)"><path class="e" d="M157.471,248.281a.914.914,0,0,1-.128.2l-.41.544-1.6,2.044-.071.091-.069-.1-3.924-5.427h.226l-3.863,5.471-.122.171-.135-.161-4.582-5.451.264,0-.252.317-4.1,5.136-.136.171-.126-.178-3.866-5.469.225.011-4.76,5.423-.085.1-.064-.109-1.491-2.5c-.155-.272-.281-.491-.382-.667a1.07,1.07,0,0,1-.117-.238,1.041,1.041,0,0,1,.16.212l.423.642,1.565,2.458-.149-.012,4.684-5.49.118-.138.107.149,3.9,5.444-.263-.007c1.3-1.633,2.67-3.359,4.087-5.144l.252-.316.131-.164.134.16,4.569,5.462-.257.01,3.9-5.442.114-.16.112.16c1.546,2.207,2.858,4.082,3.841,5.486l-.139-.005,1.661-1.991.445-.515C157.409,248.333,157.464,248.276,157.471,248.281Z" transform="translate(-127.908 -245.283)"/></g><g transform="translate(16.45 87.895)"><path class="p" d="M158.361,241.165c0,.1-6.87.171-15.342.171s-15.345-.076-15.345-.171,6.869-.17,15.345-.17S158.361,241.071,158.361,241.165Z" transform="translate(-127.674 -240.995)"/></g><g transform="translate(15.172 111.124)"><path class="q" d="M159.746,264.393c0,.1-7.466.171-16.674.171s-16.676-.076-16.676-.171,7.465-.17,16.676-.17S159.746,264.3,159.746,264.393Z" transform="translate(-126.396 -264.223)"/></g></g></g><g transform="translate(-16.036 181.674)"><g transform="translate(41.214)"><g transform="translate(27.498 52.522)"><rect class="k" width="80.276" height="3.905" transform="translate(0 0)"/></g><path class="k" d="M348.118,268.744,333.06,212.317h62.68l13.635,56.427Z" transform="translate(-333.06 -212.317)"/><g transform="translate(2.882 2.108)"><path class="f" d="M405.846,264.472h-56l-13.034-49.547H393.1Z" transform="translate(-336.168 -214.425)"/><path class="q" d="M349.467,264.972h57.027l-13-50.547H336.171Zm55.737-1H350.239l-12.771-48.547h55.248Z" transform="translate(-336.171 -214.425)"/></g></g><g transform="translate(0 56.136)"><g transform="translate(306.327 11.246)"><g transform="translate(4.054)"><rect class="p" width="4.055" height="193.558" transform="translate(0)"/></g><g transform="translate(0 0.555)"><rect class="k" width="4.054" height="193.003" transform="translate(0)"/></g></g><g transform="translate(56.56 11.246)"><g transform="translate(4.054)"><rect class="p" width="4.054" height="193.558" transform="translate(0)"/></g><g transform="translate(0 0.555)"><rect class="k" width="4.055" height="193.003" transform="translate(0)"/></g></g><rect class="p" width="361.431" height="15.875"/><g transform="translate(62.642 15.875)"><rect class="p" width="135.565" height="26.277" transform="translate(0)"/></g><g transform="translate(124.382 24.178)"><path class="q" d="M320.164,295.653a3.021,3.021,0,1,0,3.021-3.021A3.021,3.021,0,0,0,320.164,295.653Z" transform="translate(-320.164 -292.632)"/></g></g><g transform="translate(33.106 71.752)"><path class="q" d="M207.675,284.329c0,.144,46.971.26,104.9.26,57.948,0,104.909-.116,104.909-.26s-46.961-.26-104.909-.26C254.646,284.069,207.675,284.185,207.675,284.329Z" transform="translate(-207.675 -284.069)"/></g></g><g transform="translate(129.705 27.474)"><g transform="translate(26.243 30.632)"><g transform="translate(0 8.774)"><path class="r" d="M306.6,97.524c-.542,0-7.854,1.218-7.854,1.218L288.856,111.2l-1.489,2.361,13.336,8.525,5.892-8.72,5.01-3.249a5.091,5.091,0,0,0-5.281-.542,15.742,15.742,0,0,1-6.229,1.219l1.761-5.01,5.416-1.084Z" transform="translate(-287.367 -97.524)"/></g><g transform="translate(12.634)"><path class="k" d="M286.983,88.8a1.542,1.542,0,0,0-1.906,1.251c-.811,5.111-3.257,20.486-4.029,25.026a1.462,1.462,0,0,0,1.058,1.655L293.93,120a1.469,1.469,0,0,0,1.85-1.234l3.179-25.531a1.546,1.546,0,0,0-1.153-1.688Z" transform="translate(-281.027 -88.75)"/></g><g transform="translate(14.514 1.757)"><path class="f" d="M293.728,116.845,281.735,113.5l3.181-21.243a2.059,2.059,0,0,1,2.565-1.685l9.61,2.555Z" transform="translate(-281.735 -90.506)"/></g><g transform="translate(13.712 9.334)"><g transform="translate(0 3.223)"><path class="r" d="M292.5,101.307l5.4,4.053s-.449,1.418-1.271,1.524a33.479,33.479,0,0,1-5.166-1.1Z" transform="translate(-291.456 -101.307)"/></g><path class="r" d="M292.1,98.084l5.646,2.471s.368,1.841-1.749,1.586l1.9,1.356s-.469.821-2.834.918-4.651-3.175-4.651-3.175Z" transform="translate(-290.408 -98.084)"/></g><g transform="translate(9.799 12.89)"><path class="s" d="M292.376,104.367c.009.078.687-.06,1.441-.754a11.656,11.656,0,0,1,1.3-1.088,1.834,1.834,0,0,1,1.788-.229,33.526,33.526,0,0,0,4.9,2.32,24.979,24.979,0,0,0-4.723-2.808,2.236,2.236,0,0,0-1.213-.135,2.67,2.67,0,0,0-1.024.453,8.782,8.782,0,0,0-1.284,1.221A10.788,10.788,0,0,1,292.376,104.367Z" transform="translate(-292.375 -101.64)"/></g><g transform="translate(10.892 21.206)"><path class="s" d="M298.933,118.449a7.734,7.734,0,0,0,.9-8.491,18.387,18.387,0,0,1,.309,4.326A18.313,18.313,0,0,1,298.933,118.449Z" transform="translate(-298.921 -109.955)"/></g><g transform="translate(11.646 10.605)"><path class="s" d="M291.956,100.571c.066.054.369-.367,1.093-.6a3.845,3.845,0,0,1,2.863.329c1.069.508,2,1.157,2.757,1.474.755.336,1.277.381,1.29.315s-.445-.24-1.123-.643c-.688-.384-1.557-1.07-2.706-1.619a4.789,4.789,0,0,0-1.747-.468,3.212,3.212,0,0,0-1.47.269C292.115,100,291.9,100.555,291.956,100.571Z" transform="translate(-291.947 -99.354)"/></g></g><g transform="translate(8.927 77.851)"><path class="l" d="M328.921,135.968l-29.394,18.869,7.791,22.279s20.112-6.206,19.736-6.858S328.921,135.968,328.921,135.968Z" transform="translate(-299.527 -135.968)"/></g><g transform="translate(30.854 375.666)"><g transform="translate(0.066)"><path class="q" d="M280.319,437.576l4.623,21.29s-20.089,11.849-19.617,15.867l41.6-7.48-5.841-33.469Z" transform="translate(-265.317 -433.784)"/></g><g transform="translate(0 30.119)"><path class="p" d="M306.994,467.253l-.721-3.35-39.619,8.424s-1.707,1.139-1.263,2.406Z" transform="translate(-265.317 -463.903)"/></g></g><g transform="translate(71.742 381.8)"><g transform="translate(0.016)"><path class="q" d="M244.979,439.918l.687,21.776s-21.9,8.012-22.168,12.048l42.269.185.323-33.973Z" transform="translate(-223.498 -439.918)"/></g><g class="t" transform="translate(0 30.584)"><path class="p" d="M266.106,473.927,266,470.5l-40.49,1.1s-1.885.811-1.678,2.137Z" transform="translate(-223.821 -470.502)"/></g></g><g transform="translate(40.765)"><g transform="translate(6.529 3.825)"><path class="r" d="M290.481,82.861l-4.308,49.955-25.019-2c-.156-2.922.053-14.223.053-14.223s-10.41-1.619-10.538-12.027c-.063-5.054.66-15.5,1.42-24.911a19.261,19.261,0,0,1,20.324-17.681h0A19.263,19.263,0,0,1,290.481,82.861Z" transform="translate(-250.666 -61.943)"/><g transform="translate(10.501 50.646)"><path class="s" d="M266.484,116.445a24.2,24.2,0,0,0,13.569-3.856s-3.208,7.49-13.593,6.553Z" transform="translate(-266.46 -112.589)"/></g></g><g transform="translate(10.154 19.616)"><g transform="translate(0 5.606)"><g transform="translate(1.831 2.267)"><path class="k" d="M282.132,86.95a1.486,1.486,0,0,0,1.433,1.5,1.421,1.421,0,0,0,1.532-1.34,1.487,1.487,0,0,0-1.431-1.5A1.424,1.424,0,0,0,282.132,86.95Z" transform="translate(-282.131 -85.607)"/></g><path class="k" d="M281.054,84.9c.184.194,1.31-.639,2.91-.635,1.6-.019,2.771.8,2.945.608.085-.086-.1-.436-.613-.809a4.088,4.088,0,0,0-2.358-.726,3.906,3.906,0,0,0-2.316.748C281.13,84.465,280.963,84.815,281.054,84.9Z" transform="translate(-281.03 -83.34)"/><g transform="translate(15.722 0.298)"><g transform="translate(1.465 1.97)"><path class="k" d="M266.774,86.951a1.488,1.488,0,0,0,1.434,1.5,1.422,1.422,0,0,0,1.532-1.34,1.487,1.487,0,0,0-1.432-1.5A1.423,1.423,0,0,0,266.774,86.951Z" transform="translate(-266.773 -85.608)"/></g><path class="k" d="M265.331,85.2c.185.194,1.312-.64,2.91-.635,1.6-.019,2.772.8,2.945.608.085-.087-.1-.437-.614-.809a4.073,4.073,0,0,0-2.357-.727,3.924,3.924,0,0,0-2.316.748C265.408,84.763,265.241,85.114,265.331,85.2Z" transform="translate(-265.308 -83.638)"/></g><g transform="translate(5.866 0.395)"><path class="k" d="M280.314,97.062a10.648,10.648,0,0,0-2.6-.468c-.408-.042-.794-.124-.863-.4a2.071,2.071,0,0,1,.272-1.21q.578-1.482,1.208-3.11c1.678-4.428,2.892-8.069,2.713-8.135s-1.684,3.469-3.361,7.9c-.4,1.092-.79,2.132-1.157,3.128a2.359,2.359,0,0,0-.212,1.6,1.024,1.024,0,0,0,.672.6,2.755,2.755,0,0,0,.693.1A10.388,10.388,0,0,0,280.314,97.062Z" transform="translate(-276.239 -83.735)"/></g><g transform="translate(9.55 14.829)"><path class="k" d="M277.119,98.169c-.26-.015-.263,1.721-1.749,2.953s-3.334,1.041-3.348,1.284c-.024.109.413.337,1.194.359a4.323,4.323,0,0,0,2.794-.974,3.768,3.768,0,0,0,1.356-2.476C277.432,98.589,277.238,98.159,277.119,98.169Z" transform="translate(-272.021 -98.169)"/></g></g><g transform="translate(15.324)"><path class="k" d="M264.3,78.932c.158.435,1.755.229,3.631.456,1.882.188,3.395.737,3.644.347.111-.186-.153-.6-.765-1.017a6.361,6.361,0,0,0-5.542-.611C264.584,78.385,264.237,78.726,264.3,78.932Z" transform="translate(-264.296 -77.734)"/></g><g transform="translate(0.571 0.883)"><path class="k" d="M280.912,80.273c.282.364,1.383-.014,2.709-.031,1.324-.064,2.446.244,2.7-.136.114-.185-.063-.549-.553-.892a3.921,3.921,0,0,0-4.362.134C280.942,79.722,280.788,80.1,280.912,80.273Z" transform="translate(-280.871 -78.616)"/></g></g><g transform="translate(35.045 7.02)"><path class="k" d="M248.377,71.448l.057.045a8.185,8.185,0,0,1,3.043,5.294c.011.074.02.144.029.21.407,2.969.334,5.989.77,8.953s1.463,5.981,3.655,8.024c.9.84,2.5,1.418,3.237.434a2.541,2.541,0,0,0,.371-1.361c.555-7.168,2.512-13.527,2.5-21.023a6.317,6.317,0,0,0-2.622-5.143c-1.57-1.124-3.486-2.291-5.229-1.466s-4,4.091-5.356,5.475" transform="translate(-248.377 -65.137)"/></g><g transform="translate(42.43 29.125)"><path class="r" d="M247.724,87.57c.178-.077,7.152-2.115,6.924,5s-7.324,5.419-7.33,5.215S247.724,87.57,247.724,87.57Z" transform="translate(-247.318 -87.242)"/><g transform="translate(2.253 2.33)"><path class="s" d="M249.136,95.159c.032-.021.121.091.328.194a1.24,1.24,0,0,0,.926.049,3.072,3.072,0,0,0,1.507-2.707,4.1,4.1,0,0,0-.29-1.786,1.434,1.434,0,0,0-.9-.981.633.633,0,0,0-.743.316c-.1.2-.061.34-.1.351-.021.017-.149-.124-.082-.417a.787.787,0,0,1,.294-.436.938.938,0,0,1,.691-.16,1.744,1.744,0,0,1,1.26,1.145,4.209,4.209,0,0,1,.366,2c-.091,1.432-.868,2.751-1.906,3.015a1.33,1.33,0,0,1-1.128-.224C249.143,95.332,249.111,95.172,249.136,95.159Z" transform="translate(-249.129 -89.572)"/></g></g><path class="k" d="M296.71,66.517c1.752-2.847-3.048-6.935-6.56-8.042s-8.138.6-11.633,1.764c-2.2.732-4.4,1.752-6.724,1.656a15.668,15.668,0,0,1-4.511-1.15,11.514,11.514,0,0,0-4.552-.9,4.292,4.292,0,0,0-3.745,2.375c-.59,1.442.255,3.417,1.8,3.632a3.494,3.494,0,1,0-.931,6.476c-1.012-.767-2.563.5-2.439,1.763a3.682,3.682,0,0,0,2.433,2.693c2.968,1.3,6.428.888,9.5-.146s5.92-2.644,8.965-3.754,8.145-3.1,11.2-2.024c2.25.793,3.816,3.5,5.087,2.906a4.349,4.349,0,0,0,2.252-3.2,12.6,12.6,0,0,0-.14-4.051" transform="translate(-255.615 -58.117)"/><g transform="translate(4.305 1.987)"><path class="p" d="M257.6,65.658c.06-.036.367.526,1.131,1.357a9.821,9.821,0,0,0,3.954,2.545,9.015,9.015,0,0,0,6.786-.275c2.421-1.083,4.491-3.253,6.875-5.3a14.764,14.764,0,0,1,8-3.842,8.2,8.2,0,0,1,6.8,2.356,6.209,6.209,0,0,1,1.614,4.6,4.829,4.829,0,0,1-.306,1.308c-.128.28-.209.417-.23.408a11.631,11.631,0,0,0,.263-1.73,6.123,6.123,0,0,0-1.7-4.246,7.778,7.778,0,0,0-6.378-2.051,14.4,14.4,0,0,0-7.607,3.734c-2.339,2-4.474,4.226-7.064,5.351a9.675,9.675,0,0,1-11.211-2.681,6.7,6.7,0,0,1-.742-1.109C257.638,65.816,257.575,65.669,257.6,65.658Z" transform="translate(-257.592 -60.104)"/></g><g transform="translate(39.446 10.62)"><path class="p" d="M255.379,87.26c-.026.024-.307-.2-.575-.761a4.779,4.779,0,0,1-.355-2.579c.157-2.293,2.185-4.753,2.443-7.921a7.156,7.156,0,0,0-.788-4.247,5.434,5.434,0,0,0-2.645-2.284,4.636,4.636,0,0,0-2.375-.324c-.572.091-.879.225-.906.168-.016-.029.253-.252.849-.435a4.43,4.43,0,0,1,2.6.124,5.74,5.74,0,0,1,3.03,2.422,7.552,7.552,0,0,1,.93,4.643,12.941,12.941,0,0,1-1.373,4.484,13.509,13.509,0,0,0-1.278,3.438A5.5,5.5,0,0,0,255.379,87.26Z" transform="translate(-250.178 -68.738)"/></g></g><g transform="translate(21.959 268.834)"><path class="q" d="M283.88,455.837s-21.668-106.293-21.685-108.421L300.9,326.952l14.989,124.743Z" transform="translate(-262.195 -326.952)"/></g><g transform="translate(62.455 177.316)"><path class="q" d="M250.531,459.4,220.6,275.17V235.434l43.348,3.1c.516,1.548,11.445,221.113,11.445,221.113l-4.22-.245H250.531" transform="translate(-220.6 -235.434)"/></g><g transform="translate(21.959 174.506)"><path class="q" d="M279.46,232.624,262.492,347.416l37.934-9.2,15.463-101.86Z" transform="translate(-262.492 -232.624)"/></g><g transform="translate(30.458 204.683)"><line class="u" y1="15.626" x2="1.925" transform="translate(0)"/></g><g transform="translate(25.098 68.054)"><path class="l" d="M289.6,282.068s-6.592-5.663-7.25-9.939,7.916-73.019,7.916-73.019l4.367-56.823c0,1-.115-7.159,1.2-7.651,4.039-1.506,12.221-4.247,12.221-4.247l4.695-4.218s-8.436,36.077-10.08,45.944Z" transform="translate(-282.312 -126.171)"/></g><g transform="translate(69.975 64.157)"><path class="l" d="M227.943,122.274l7.1,4.723,26.63,10.478-11.823,44.608,1.581,25.869,1.518,16.448s7.925,40.727,14.925,65.477c0,0-7.807,14.8-14.229,16.866l-2.671,1.586-9.518-69.71-8.173-11.03q-1.176-1.586-2.207-3.267c-2.006-3.27-6.582-10.7-10.23-16.434-4.816-7.569-11.009-24.771-9.174-32.11S227.943,122.274,227.943,122.274Z" transform="translate(-211.341 -122.274)"/></g><g transform="translate(89.432 199.617)"><path class="q" d="M248.416,276.057a60.845,60.845,0,0,1-15.237-18.322" transform="translate(-233.179 -257.735)"/></g><g transform="translate(37.585 61.468)"><path class="f" d="M286.1,122.274l-6.41,41.124a59.256,59.256,0,0,0,2.6,15.506l11.44,36.97s8.989,20.17,5.887,22.745-27.3,0-27.3,0l-32.739-4.751a2.874,2.874,0,0,1-2.448-3.121l4.863-50.222c1.635-3.468,2.309-10.562,2.994-13.089l10.08-41.265,2.061-.267,4.482,3.077,2.356.188,19.817-9.584Z" transform="translate(-237.108 -119.585)"/></g><g transform="translate(79.622 109.113)"><path class="e" d="M250.026,210.525c-5.289-16.487-12.139-43.294-12.139-43.294-2.131,14.022.2,28.353,5.414,41.544,4.254,10.769,9.4,18.909,12.951,29.931l.106.457s2,.1,1.861-2.844-2.971-11.724-4.911-16.591S250.026,210.525,250.026,210.525Z" transform="translate(-237.101 -167.231)"/></g><g transform="translate(57.631 74.372)"><path class="o" d="M274.436,132.489h4.446l1.336,6.086-3.893,4.715-3.92-.392-1.278-4.369,1.051-2.44Z" transform="translate(-271.127 -132.489)"/></g><g transform="translate(0 54.68)"><path class="l" d="M332.522,168.052c-1.4.282-16.866,10.682-22.488,9.558s-10.166-6.418-10.765-7.129c-3.188-3.783-1.19-11.627-.273-14.588a9.963,9.963,0,0,1,.916-2.073L323.779,112.8l14.069,8.55L323.246,148Z" transform="translate(-297.531 -112.797)"/></g><g transform="translate(104.669 79.358)"><path class="l" d="M231.96,217.621a18.33,18.33,0,0,0-.867-15.03c-3.241-6.41-8.372-16.766-9.453-20.162-1.6-5.046-16.559-43.8-19.5-44.954L189.11,181.356l15.1,31.808-17.7,33.344,14.787,15.9s27.914-38.919,30.208-43.736C231.666,218.324,231.819,217.974,231.96,217.621Z" transform="translate(-186.508 -137.475)"/></g><g transform="translate(88.259 190.192)"><path class="r" d="M236.919,272.523a49.162,49.162,0,0,1-7.389-8.725.314.314,0,0,0,.009-.267.445.445,0,0,0-.3-.183,42.691,42.691,0,0,1-2.322-4.069c2.473-1.607,5.7-4.04,2.189-4.539-4.323-.615-7.414-2.717-7.854-3.867s1-2.184,2.139-1.448a15.906,15.906,0,0,0,4.161,1.436,10.4,10.4,0,0,0,3.525.223c1.373-.152,7-2.593,7.984-2.774l10.528,11.084S241.509,267.961,236.919,272.523Z" transform="translate(-221.17 -248.31)"/></g><g transform="translate(35.081 78.703)"><path class="k" d="M299.573,169.272a6.1,6.1,0,0,0,.367-1.235c.206-.8.467-1.971.756-3.423a110.294,110.294,0,0,0,2.054-23.01c-.028-1.48-.078-2.677-.139-3.5a6.175,6.175,0,0,0-.142-1.28,6.1,6.1,0,0,0-.061,1.286c-.007.931-.016,2.1-.026,3.5-.036,2.951-.176,7.027-.574,11.513s-.987,8.519-1.474,11.43c-.236,1.375-.435,2.53-.593,3.447A6.171,6.171,0,0,0,299.573,169.272Z" transform="translate(-299.563 -136.821)"/></g><g transform="translate(22.811 82.282)"><path class="q" d="M306.974,171.645c.006.016.12-.012.335-.083a5.3,5.3,0,0,0,.892-.422,7.723,7.723,0,0,0,2.541-2.578,16.349,16.349,0,0,0,1.816-5.04,61.314,61.314,0,0,0,1.2-6.428c.42-4.623.771-8.774,1-11.8.1-1.43.178-2.629.243-3.577a6.356,6.356,0,0,0,.018-1.319,6.518,6.518,0,0,0-.22,1.3c-.108.944-.245,2.139-.408,3.564-.321,3.007-.734,7.188-1.149,11.769-.285,2.274-.715,4.433-1.147,6.379a16.827,16.827,0,0,1-1.664,4.959,8.118,8.118,0,0,1-2.334,2.6C307.4,171.438,306.956,171.6,306.974,171.645Z" transform="translate(-306.973 -140.4)"/></g><g class="v" transform="translate(27.358 82.364)"><path class="k" d="M307.757,140.481a88.451,88.451,0,0,1,2.524,14.051,21.443,21.443,0,0,1-.447,8.485c-.854,2.721-2.87,5.231-5.627,5.959q1.883-13.914,3.332-27.882" transform="translate(-304.207 -140.481)"/></g><g class="v" transform="translate(103.388 118.248)"><path d="M234.459,230.388s-4.684,9.593-7.273,14.614c-5.4-22.311,1.451-45.79-.783-68.636l3.9,7.869,1.1,18.212.839,10.681S233.045,224.617,234.459,230.388Z" transform="translate(-225.058 -176.366)"/></g><g transform="translate(102.156 79.759)"><path class="k" d="M235.689,137.877a7.989,7.989,0,0,0-.794,1.247c-.246.407-.534.913-.831,1.521s-.671,1.283-1,2.068a47.152,47.152,0,0,0-2.107,5.6,48.75,48.75,0,0,0-2.126,14.462,47.342,47.342,0,0,0,.407,5.969c.089.847.247,1.6.362,2.268s.24,1.235.358,1.7a7.9,7.9,0,0,0,.4,1.422,8.216,8.216,0,0,0-.2-1.462c-.087-.466-.187-1.036-.269-1.7s-.219-1.42-.283-2.264a53.305,53.305,0,0,1-.293-5.924,52.091,52.091,0,0,1,2.106-14.325,53.045,53.045,0,0,1,1.985-5.59c.3-.789.647-1.473.922-2.087s.531-1.133.748-1.554A8.028,8.028,0,0,0,235.689,137.877Z" transform="translate(-228.832 -137.876)"/></g><g transform="translate(122.545 145.76)"><path class="k" d="M197.365,213.424c.073.045.734-1.058,2.037-2.653a25.8,25.8,0,0,1,5.913-5.355,6.023,6.023,0,0,1,4.077-.982,8.066,8.066,0,0,1,3.232,1.373c1.686,1.165,2.614,2.073,2.677,2,.024-.025-.184-.272-.6-.683a16.566,16.566,0,0,0-1.87-1.618,8.028,8.028,0,0,0-3.369-1.545,6.377,6.377,0,0,0-4.418,1.008,23.123,23.123,0,0,0-5.935,5.576,19.648,19.648,0,0,0-1.361,2.06A2.794,2.794,0,0,0,197.365,213.424Z" transform="translate(-197.361 -203.878)"/></g><g transform="translate(122.483 144.794)"><g transform="translate(0 0)"><path class="k" d="M215.353,202.913a20.194,20.194,0,0,0-3.295,10.149c.153.022.546-2.343,1.461-5.136C214.418,205.13,215.49,202.985,215.353,202.913Z" transform="translate(-212.018 -202.911)"/></g></g><g transform="translate(104.193 171.655)"><path class="k" d="M227.027,229.773a8.471,8.471,0,0,0-.754,1.28l-1.9,3.59c-1.588,3.051-3.764,7.3-6.171,12.07l-.083.164.127.133,1,1.038c3.928,4.093,7.505,7.777,10.113,10.426l3.107,3.118a9.569,9.569,0,0,0,1.191,1.094,9.567,9.567,0,0,0-1.044-1.234l-2.989-3.233c-2.539-2.714-6.074-6.439-10-10.531l-1-1.038.045.3c2.4-4.774,4.519-9.051,6.025-12.144l1.755-3.663A8.551,8.551,0,0,0,227.027,229.773Z" transform="translate(-218.12 -229.773)"/></g><g transform="translate(86.986 69.863)"><path class="k" d="M250.836,209.646a5.245,5.245,0,0,0,.026-.863q-.012-.917-.03-2.471c-.05-2.2-.12-5.288-.206-9.087-.111-3.837-.2-8.4-.406-13.478a73.189,73.189,0,0,0-2.24-16.374,37.711,37.711,0,0,0-3.157-7.909l-.188.375a5.4,5.4,0,0,0,3.194-1.813,7.785,7.785,0,0,0,1.669-3.106,24.412,24.412,0,0,0,.522-6.476c0-4.078,0-7.71-.007-10.758-.018-2.994-.033-5.408-.043-7.127-.015-.8-.026-1.435-.035-1.915a3.6,3.6,0,0,0-.043-.664,3.72,3.72,0,0,0-.049.663c-.013.481-.03,1.117-.052,1.915-.027,1.719-.064,4.133-.109,7.127-.031,3.047-.067,6.679-.107,10.757a24.341,24.341,0,0,1-.543,6.344,7.308,7.308,0,0,1-1.574,2.906,4.91,4.91,0,0,1-2.895,1.642l-.363.053.175.322a37.555,37.555,0,0,1,3.1,7.805,74.454,74.454,0,0,1,2.262,16.256c.235,5.062.359,9.633.517,13.467.155,3.8.281,6.887.371,9.081q.081,1.554.128,2.469A5.27,5.27,0,0,0,250.836,209.646Z" transform="translate(-244.2 -127.98)"/></g><g transform="translate(38.816 72.906)"><path class="k" d="M299.029,131.024a2.822,2.822,0,0,0-.232.549l-.579,1.61c-.5,1.465-1.2,3.5-2.063,6l-3.04,9.03c-.55,1.726-1.23,3.484-1.743,5.439a7.072,7.072,0,0,0-.127,3.113,4.146,4.146,0,0,0,1.782,2.721l-.08-.364c-.845,1.252-1.734,2.576-2.565,3.972a23.964,23.964,0,0,0-2.8,6.476,23.013,23.013,0,0,0-.454,6.555c.245,4.16.52,7.888.734,11.027.229,3.091.415,5.613.55,7.427.072.834.131,1.5.175,2.017a3.6,3.6,0,0,0,.1.7,3.625,3.625,0,0,0,.008-.708c-.02-.515-.046-1.187-.078-2.024-.094-1.816-.224-4.342-.384-7.437-.178-3.157-.389-6.889-.622-11.025a22.826,22.826,0,0,1,.469-6.414,23.737,23.737,0,0,1,2.753-6.33c.821-1.379,1.7-2.7,2.545-3.95l.151-.224-.23-.14a3.646,3.646,0,0,1-1.555-2.388,6.61,6.61,0,0,1,.113-2.894c.483-1.883,1.163-3.689,1.7-5.408,1.108-3.423,2.1-6.485,2.933-9.066.8-2.524,1.446-4.572,1.914-6.048l.493-1.639A2.768,2.768,0,0,0,299.029,131.024Z" transform="translate(-287.081 -131.024)"/></g><g transform="translate(89.685 197.144)"><g transform="translate(0 0)"><path class="p" d="M233.526,255.263a3.308,3.308,0,0,0,.457.817c.32.508.8,1.229,1.416,2.11,1.223,1.762,2.973,4.155,5,6.728s3.938,4.838,5.362,6.443c.712.8,1.3,1.442,1.716,1.873s.66.66.687.636a25.059,25.059,0,0,0-2.122-2.748c-1.35-1.662-3.214-3.958-5.234-6.526s-3.811-4.919-5.108-6.623A24.973,24.973,0,0,0,233.526,255.263Z" transform="translate(-233.522 -255.262)"/></g></g><g transform="translate(74.019 184.238)"><path class="p" d="M234.5,242.356s.006.192.042.563c.042.391.1.937.175,1.647.167,1.467.409,3.6.721,6.326.648,5.492,1.623,13.434,2.9,23.238,2.531,19.611,6.374,46.656,10.5,76.538,2.056,14.948,3.945,29.2,5.558,42.169.416,3.244.747,6.411,1.206,9.481s.925,6.031,1.366,8.9c.87,5.746,1.682,11.1,2.423,15.988,1.468,9.776,2.629,17.691,3.389,23.167.38,2.737.66,4.865.828,6.31.084.722.139,1.274.163,1.645a2.6,2.6,0,0,1,.006.417c-.012.119-.068-.008-.064.016a.123.123,0,0,0,.014.034c.013.043.08.01.076-.044a2.074,2.074,0,0,0,.021-.425c-.006-.374-.045-.929-.112-1.654-.134-1.45-.382-3.583-.731-6.326-.7-5.485-1.8-13.41-3.226-23.194-.722-4.892-1.512-10.249-2.36-16q-.65-4.312-1.341-8.91c-.449-3.055-.773-6.232-1.182-9.471-1.587-12.977-3.462-27.231-5.518-42.18-4.128-29.885-8.028-56.919-10.652-76.516-1.292-9.786-2.338-17.712-3.064-23.214-.353-2.725-.628-4.85-.818-6.314-.1-.706-.172-1.251-.226-1.64C234.544,242.543,234.5,242.356,234.5,242.356Z" transform="translate(-234.503 -242.356)"/></g><g transform="translate(31.775 187.232)"><g transform="translate(0 0)"><path class="p" d="M306.073,454.851s-.016-.186-.071-.546q-.092-.567-.259-1.592c-.242-1.419-.594-3.476-1.045-6.114-.933-5.327-2.278-13-3.939-22.471-3.379-18.984-8.04-45.175-13.189-74.1a17.263,17.263,0,0,1-.32-5.369c.227-1.775.524-3.571.786-5.336q.82-5.3,1.616-10.445c1.078-6.845,2.141-13.444,3.19-19.724,2.088-12.562,4.1-23.851,5.906-33.311s3.387-17.09,4.591-22.338c.569-2.632,1.085-4.658,1.4-6.039q.234-1.013.364-1.572c.079-.355.106-.54.106-.54s-.062.176-.158.527c-.1.371-.236.889-.414,1.559-.352,1.374-.9,3.393-1.5,6.019-1.266,5.237-2.9,12.861-4.756,22.314s-3.9,20.741-6.017,33.3c-1.062,6.279-2.136,12.878-3.221,19.724q-.8,5.136-1.625,10.446c-.263,1.776-.556,3.538-.79,5.362a17.772,17.772,0,0,0,.326,5.525L300.4,424.194c1.729,9.459,3.129,17.121,4.1,22.44.492,2.631.876,4.682,1.141,6.1q.2,1.02.31,1.584C306.022,454.671,306.073,454.851,306.073,454.851Z" transform="translate(-286.645 -245.35)"/></g></g><g transform="translate(62.447 215.752)"><path class="p" d="M266.98,273.87c-.142.022,1.626,11.924,3.949,26.58s4.322,26.524,4.464,26.5-1.626-11.922-3.95-26.583S267.122,273.847,266.98,273.87Z" transform="translate(-266.972 -273.87)"/></g><g transform="translate(92.027 400.913)"><path class="p" d="M220.652,459.068a3.631,3.631,0,0,0,.98.17c.634.077,1.553.164,2.69.252,2.275.178,5.423.346,8.9.4s6.635-.007,8.914-.11c1.139-.051,2.06-.107,2.7-.163a3.651,3.651,0,0,0,.985-.137,28.636,28.636,0,0,0-3.69-.068c-2.278.009-5.423.014-8.9-.043s-6.616-.167-8.892-.25A28.6,28.6,0,0,0,220.652,459.068Z" transform="translate(-220.652 -459.03)"/></g><g transform="translate(43.644 393.557)"><path class="p" d="M262.2,455.837a6.032,6.032,0,0,0,1.271-.064l3.44-.365c2.9-.331,6.906-.824,11.325-1.4s8.417-1.122,11.308-1.542l3.419-.52a6.763,6.763,0,0,0,1.246-.253,5.223,5.223,0,0,0-1.271.052c-.814.071-1.99.193-3.441.356-2.9.326-6.908.816-11.328,1.391s-8.416,1.124-11.305,1.549l-3.419.529A5.978,5.978,0,0,0,262.2,455.837Z" transform="translate(-262.195 -451.674)"/></g><g transform="translate(64.786 70.798)"><path class="k" d="M273.061,128.918a6.5,6.5,0,0,0-1.107.714l-2.941,2.039c-2.492,1.706-5.984,3.992-9.983,6.277-1.5.86-2.962,1.66-4.319,2.377l.356.161c-.838-3.314-1.578-6.163-2.123-8.18-.261-.934-.48-1.717-.658-2.356a3.5,3.5,0,0,0-.293-.833,3.551,3.551,0,0,0,.131.873c.14.648.312,1.443.518,2.391.46,2.038,1.136,4.9,1.943,8.225l.074.306.282-.146c1.37-.706,2.842-1.5,4.348-2.366a108.139,108.139,0,0,0,9.937-6.429c1.224-.891,2.19-1.647,2.85-2.177A6.36,6.36,0,0,0,273.061,128.918Z" transform="translate(-251.985 -128.916)"/></g><g transform="translate(52.815 70.917)"><path class="k" d="M275.4,136.281a35.786,35.786,0,0,0,4.419,2.985l.222.139.121-.236c.425-.827.879-1.708,1.353-2.629,1.034-2.04,1.945-3.9,2.581-5.259a11.316,11.316,0,0,0,.933-2.246,11.314,11.314,0,0,0-1.261,2.08c-.72,1.316-1.683,3.149-2.718,5.189l-1.321,2.644.343-.1A35.437,35.437,0,0,0,275.4,136.281Z" transform="translate(-275.396 -129.034)"/></g><g transform="translate(59.365 77.186)"><path class="k" d="M272.2,135.3a5.946,5.946,0,0,0,.877.689c.558.4,1.337.953,2.205,1.547s1.661,1.123,2.24,1.5a5.815,5.815,0,0,0,.96.568,6.03,6.03,0,0,0-.879-.691c-.558-.4-1.336-.952-2.2-1.545s-1.658-1.121-2.237-1.5A5.9,5.9,0,0,0,272.2,135.3Z" transform="translate(-272.199 -135.303)"/></g><g transform="translate(62.369 75.427)"><path class="k" d="M271.738,137.372a34.475,34.475,0,0,0,3.74-3.826,34.239,34.239,0,0,0-3.74,3.826Z" transform="translate(-271.736 -133.545)"/></g><g transform="translate(74.475 167.965)"><path class="k" d="M263.291,226.083a19.272,19.272,0,0,1-6.728,13.08,6.262,6.262,0,0,0,1.83-1.309,15.54,15.54,0,0,0,4.9-9.521A6.346,6.346,0,0,0,263.291,226.083Z" transform="translate(-256.559 -226.083)"/></g><g transform="translate(75.393 177.005)"><path class="k" d="M253.664,239.257a14.011,14.011,0,0,0,8.787-4.127c-.1-.122-1.817,1.248-4.247,2.377C255.785,238.656,253.633,239.1,253.664,239.257Z" transform="translate(-253.664 -235.122)"/></g><g transform="translate(51.592 149.132)"><g transform="translate(0 0)"><path class="k" d="M286.247,207.25a4.7,4.7,0,0,0-.369,1.073c-.207.7-.476,1.718-.782,2.984-.614,2.531-1.343,6.06-1.928,9.993s-.908,7.524-1.055,10.125c-.074,1.3-.113,2.354-.118,3.082a4.756,4.756,0,0,0,.042,1.134,4.764,4.764,0,0,0,.16-1.123q.115-1.253.283-3.065c.241-2.587.624-6.155,1.2-10.076s1.252-7.445,1.773-9.99q.365-1.78.618-3.016A4.846,4.846,0,0,0,286.247,207.25Z" transform="translate(-281.993 -207.25)"/></g></g><g transform="translate(52.265 86.196)"><path class="e" d="M282.705,144.313c1.3,10.388,2.264,33.024,2.621,43.487.3,8.763.269,17.533.237,26.3-.01,2.824-.04,5.746-1.2,8.321-2.09,4.626-7.2,6.949-11.9,8.882Z" transform="translate(-272.463 -144.313)"/></g><g transform="translate(45.456 84.767)"><g transform="translate(0 0.015)"><path class="o" d="M280.389,229.8l-5.369-13.165L288.472,142.9l3.92.391s-.546,76.639-.373,77.332Z" transform="translate(-275.02 -142.899)"/></g><g transform="translate(13.597)"><path class="k" d="M275.046,142.9a10.631,10.631,0,0,0,3.749.274,43.023,43.023,0,0,0-3.749-.274Z" transform="translate(-275.046 -142.884)"/></g></g></g></g><g transform="translate(-3133.723 -23544.521) rotate(-14)"><g transform="translate(0 0)"><path class="w" d="M26.209,24.974c-9.071,1.6-11.162-7.086-6.832-7.85q.653-.115,3.058-.558l-6.644,1.171c-5.851,1.032-9.736-6.9-5.237-7.689,1.731-.356,3.558-.627,3.558-.627l-5.645,1C.787,11.771-2.332,3.675,1.9,2.929L17.769.174c5.781-1.019,7.723,2.657,8.255,5.67l3.707,16.832a1.584,1.584,0,0,1-1.272,1.9l-2.251.4Z" transform="translate(0 0)"/><g transform="translate(25.814 5.53) rotate(9)"><path d="M1.369.03,52.513,0a1.346,1.346,0,0,1,1.35,1.344l-.017,29.469a1.35,1.35,0,0,1-1.351,1.346l-51.145.03A1.346,1.346,0,0,1,0,30.845L.017,1.375A1.35,1.35,0,0,1,1.369.03Z" transform="translate(0 0)"/><path class="x" d="M1.369.03,52.513,0a1.346,1.346,0,0,1,1.35,1.344l-.017,29.469a1.35,1.35,0,0,1-1.351,1.346l-51.145.03A1.346,1.346,0,0,1,0,30.845L.017,1.375A1.35,1.35,0,0,1,1.369.03Z" transform="translate(0 0)"/></g><path class="w" d="M.634,1.634a1.815,1.815,0,0,1,2.2-1.6l3.8.6a1.815,1.815,0,0,1,1.6,2.205l-.6,3.809a1.815,1.815,0,0,1-2.2,1.6l-3.8-.6a1.815,1.815,0,0,1-1.6-2.205l.6-3.809Z" transform="translate(59.976 18.323)"/><path class="y" d="M0,0A21.438,21.438,0,0,0,9.2,3.409a22.681,22.681,0,0,0,9.8-.4" transform="translate(37.894 29.643)"/><path class="w" d="M3.349,25.332c9.154,3.514,13.158-5.283,8.789-6.96q-.659-.253-3.082-1.2l6.7,2.573c5.9,2.266,11.627-5.367,7.087-7.109-1.737-.724-3.591-1.378-3.591-1.378l5.7,2.187C32.7,16.415,37.66,8.45,33.39,6.811L17.367.709C11.533-1.531,8.732,1.98,7.545,5.071L.14,22.2a1.7,1.7,0,0,0,.953,2.266l2.255.866Z" transform="translate(69.804 12.464)"/></g></g><g transform="translate(-3233 -23253.283)"><g transform="translate(36.924)"><g transform="translate(1.041 36.491)"><path class="c" d="M435.427,394.61c-.066.083-.621-.251-1.24-.745s-1.065-.963-1-1.046.621.251,1.24.745S435.494,394.527,435.427,394.61Z" transform="translate(-433.183 -392.807)"/></g><g transform="translate(2.007 1.227)"><path class="l" d="M452.537,360.073a19.481,19.481,0,0,0-.575-7,6.9,6.9,0,0,0-4.774-4.769c-2.633-.545-5.33,1.117-6.806,3.364s-1.983,4.977-2.418,7.63a269.443,269.443,0,0,0-3.3,55.386l10.774,1.511C450.167,396.859,451.677,379.959,452.537,360.073Z" transform="translate(-434.405 -348.197)"/></g><g transform="translate(5.371 1.248)"><path class="c" d="M446.584,348.224a.6.6,0,0,1-.049.172c-.047.132-.106.292-.178.488l-.718,1.862c-.15.406-.35.844-.511,1.346l-.523,1.632L444,355.6q-.264,1.014-.557,2.137a93.7,93.7,0,0,0-2.081,10.662c-.583,4.051-.966,8.539-1.266,13.254-.551,9.439-.637,18.008-.88,24.2-.115,3.1-.221,5.605-.34,7.336q-.085,1.259-.135,1.992c-.017.208-.032.378-.044.517a.634.634,0,0,1-.028.176.6.6,0,0,1-.011-.178c0-.14,0-.311.006-.519.016-.488.036-1.154.063-1.995.072-1.732.137-4.239.217-7.337.173-6.2.216-14.764.768-24.219.3-4.722.695-9.22,1.3-13.281a89.147,89.147,0,0,1,2.169-10.682l.585-2.136.634-1.872.555-1.626c.172-.5.382-.936.544-1.339l.786-1.837.213-.474A.578.578,0,0,1,446.584,348.224Z" transform="translate(-438.66 -348.224)"/></g><g transform="translate(11.769 1.254)"><path class="c" d="M449.278,348.231a7.724,7.724,0,0,1,1.316,2.229,16.514,16.514,0,0,1,.983,6.97c-.287,5.953-.82,14.156-1.528,23.214s-1.5,17.247-2.138,23.167c-.318,2.96-.593,5.352-.8,7l-.244,1.9-.073.493a.592.592,0,0,1-.038.166.548.548,0,0,1,0-.171c.009-.135.021-.3.036-.5q.063-.7.172-1.909c.163-1.692.392-4.081.674-7.016.566-5.925,1.312-14.114,2.025-23.169s1.285-17.259,1.639-23.193a16.85,16.85,0,0,0-.849-6.9A14.567,14.567,0,0,0,449.278,348.231Z" transform="translate(-446.754 -348.231)"/></g><g transform="translate(17.807 27.697)"><path class="c" d="M458.348,383.123a11.566,11.566,0,0,1-3.954-1.418,11.565,11.565,0,0,1,3.954,1.418Z" transform="translate(-454.393 -381.682)"/></g><g transform="translate(19.016 18.141)"><path class="c" d="M459.966,369.611a12.813,12.813,0,0,1-4.043,1.809,12.833,12.833,0,0,1,4.043-1.809Z" transform="translate(-455.922 -369.594)"/></g><g transform="translate(19.201 8.865)"><path class="c" d="M459.342,358.191a6.734,6.734,0,0,1-3.186-.221,6.732,6.732,0,0,1,3.186.221Z" transform="translate(-456.156 -357.86)"/></g><g transform="translate(9.473 0.62)"><path class="c" d="M445.646,350.264c-.09.056-.562-.531-1.054-1.313s-.817-1.462-.727-1.518.561.53,1.053,1.313S445.736,350.207,445.646,350.264Z" transform="translate(-443.85 -347.429)"/></g><g transform="translate(4.544 8.645)"><path class="c" d="M440.666,357.809a6.159,6.159,0,0,1-3.052-.065,6.16,6.16,0,0,1,3.052.065Z" transform="translate(-437.614 -357.581)"/></g><g transform="translate(1.88 18.449)"><path class="c" d="M437.322,371.25a3.753,3.753,0,0,1-1.61-.442c-.85-.343-1.506-.7-1.466-.8a3.746,3.746,0,0,1,1.61.442C436.706,370.793,437.362,371.152,437.322,371.25Z" transform="translate(-434.244 -369.984)"/></g><g transform="translate(1.855 28.779)"><path class="c" d="M437.033,383.106c.022.1-.592.32-1.371.484s-1.428.212-1.45.107.592-.321,1.371-.485S437.011,383,437.033,383.106Z" transform="translate(-434.212 -383.051)"/></g><g transform="translate(0.456 43.688)"><path class="c" d="M435.421,401.973c.019.1-.632.309-1.455.456a3.138,3.138,0,0,1-1.523.077c-.019-.1.633-.309,1.455-.456A3.126,3.126,0,0,1,435.421,401.973Z" transform="translate(-432.443 -401.912)"/></g><g transform="translate(0 51.961)"><path class="c" d="M434.476,412.4c.05.094-.493.479-1.213.86s-1.344.613-1.394.519.494-.478,1.213-.859S434.426,412.3,434.476,412.4Z" transform="translate(-431.866 -412.378)"/></g><g transform="translate(7.537 58.214)"><path class="c" d="M443.2,423.4c-.092.053-.565-.6-1.058-1.46a4.332,4.332,0,0,1-.723-1.651c.092-.053.566.6,1.058,1.459A4.336,4.336,0,0,1,443.2,423.4Z" transform="translate(-441.4 -420.287)"/></g><g transform="translate(8.641 45.791)"><path class="c" d="M445.429,404.579c.074.076-.453.713-1.178,1.424s-1.373,1.226-1.447,1.15.453-.714,1.178-1.424S445.355,404.5,445.429,404.579Z" transform="translate(-442.797 -404.572)"/></g><g transform="translate(8.93 35.587)"><path class="c" d="M445.077,393.726c-.077.072-.567-.33-1.093-.9s-.888-1.086-.811-1.158.568.329,1.093.9S445.155,393.654,445.077,393.726Z" transform="translate(-443.163 -391.663)"/></g><g transform="translate(9.918 27.231)"><path class="c" d="M446.672,381.1c.079.071-.36.691-.982,1.384s-1.19,1.2-1.269,1.128.36-.691.982-1.385S446.593,381.03,446.672,381.1Z" transform="translate(-444.412 -381.094)"/></g><g transform="translate(10.451 17.246)"><path class="c" d="M447.564,370.9c-.074.076-.688-.406-1.37-1.077s-1.175-1.276-1.1-1.352.688.406,1.37,1.078S447.639,370.823,447.564,370.9Z" transform="translate(-445.087 -368.462)"/></g><g transform="translate(12.681 9.465)"><path class="c" d="M449.631,358.622a3.762,3.762,0,0,1-.688,1.529c-.471.79-.927,1.387-1.019,1.332a3.782,3.782,0,0,1,.689-1.529C449.083,359.164,449.54,358.568,449.631,358.622Z" transform="translate(-447.908 -358.619)"/></g><g transform="translate(15.604)"><path class="c" d="M453.18,346.648a3.63,3.63,0,0,1-.608,1.53c-.43.8-.854,1.4-.948,1.348a3.656,3.656,0,0,1,.609-1.53C452.663,347.2,453.087,346.6,453.18,346.648Z" transform="translate(-451.606 -346.645)"/></g><g transform="translate(18.232 4.273)"><path class="c" d="M457.025,352.08c.046.1-.385.4-.963.673s-1.083.423-1.129.327.385-.4.963-.674S456.979,351.984,457.025,352.08Z" transform="translate(-454.93 -352.05)"/></g><g transform="translate(16.465 36.604)"><path class="c" d="M456.632,394.641a6.575,6.575,0,0,1-3.934-1.678,83.528,83.528,0,0,1,3.934,1.678Z" transform="translate(-452.694 -392.951)"/></g><g transform="translate(16.144 45.439)"><path class="c" d="M455.26,404.183c.02.1-.629.317-1.45.475a3.133,3.133,0,0,1-1.522.1c-.021-.1.628-.317,1.449-.476A3.143,3.143,0,0,1,455.26,404.183Z" transform="translate(-452.288 -404.126)"/></g><g transform="translate(14.851 54.472)"><path class="c" d="M453.336,418.921a6.095,6.095,0,0,1-2.669-3.366,377.523,377.523,0,0,0,2.669,3.366Z" transform="translate(-450.653 -415.553)"/></g><g transform="translate(0.209 61.588)"><path class="c" d="M432.138,426.453c-.07-.081.368-.568.977-1.089s1.159-.877,1.228-.8-.369.568-.978,1.089S432.207,426.534,432.138,426.453Z" transform="translate(-432.131 -424.556)"/></g></g><g transform="translate(23.737 31.766)"><path class="o" d="M423.609,391.606c-.7-2.19-2.017-4.743-4.316-4.775a3.818,3.818,0,0,0-3.232,2.163,7.972,7.972,0,0,0-.873,3.964,103.271,103.271,0,0,0,4.941,28.7h8.412A99.958,99.958,0,0,0,423.609,391.606Z" transform="translate(-415.183 -386.831)"/></g><g transform="translate(2.494 15.279)"><path class="l" d="M402.766,373.453a9.351,9.351,0,0,0-8.758-7.479c-3.718.652-5.16,4.313-5.6,8.062s.722,7.48,1.872,11.076q5.536,17.317,11.073,34.633l10.465-1.143C408.5,403.135,406.6,388.8,402.766,373.453Z" transform="translate(-388.311 -365.974)"/></g><g transform="translate(26.438 31.767)"><path class="c" d="M420.009,386.831a8.836,8.836,0,0,0-.713,1.19,7.843,7.843,0,0,0-.394,3.719c.163,1.6.346,3.525.614,5.635s.655,4.428,1.127,6.844c.952,4.833,2.023,9.169,2.7,12.33.344,1.579.6,2.862.768,3.752.07.409.128.748.176,1.026a1.27,1.27,0,0,1,.036.364,1.372,1.372,0,0,1-.111-.348c-.067-.274-.148-.608-.247-1.011-.223-.938-.522-2.194-.887-3.722-.748-3.142-1.861-7.469-2.816-12.317-.473-2.424-.845-4.749-1.1-6.874-.134-1.062-.223-2.076-.309-3.024s-.18-1.824-.224-2.636a7.629,7.629,0,0,1,.529-3.8A3.323,3.323,0,0,1,420.009,386.831Z" transform="translate(-418.601 -386.831)"/></g><g transform="translate(5.173 14.981)"><path class="c" d="M394.87,365.6a14.1,14.1,0,0,0-1.265,1.7,11.957,11.957,0,0,0-1.593,5.476,25.337,25.337,0,0,0,1.295,8.425c.919,3.115,1.927,6.532,2.987,10.12l5.356,18.411c.659,2.33,1.2,4.23,1.581,5.591l.411,1.526a2.9,2.9,0,0,1,.118.539,3,3,0,0,1-.192-.518c-.122-.379-.281-.88-.481-1.505l-1.7-5.557-5.464-18.38-2.959-10.132a25.042,25.042,0,0,1-1.224-8.54,11.724,11.724,0,0,1,1.737-5.537A6.468,6.468,0,0,1,394.87,365.6Z" transform="translate(-391.699 -365.597)"/></g><g transform="translate(7.638 15.193)"><path class="c" d="M410.9,417.461a3,3,0,0,1-.236-.5c-.138-.336-.36-.824-.6-1.472-.5-1.286-1.138-3.18-1.8-5.558s-1.319-5.242-1.95-8.439c-.606-3.2-1.272-6.719-1.971-10.41-.728-3.684-1.538-7.17-2.479-10.281a57.157,57.157,0,0,0-3.051-8.063,42.731,42.731,0,0,0-2.821-5.084c-.36-.587-.687-1.009-.881-1.315a2.994,2.994,0,0,1-.293-.472,2.986,2.986,0,0,1,.356.425c.215.293.563.7.943,1.278a38.078,38.078,0,0,1,2.942,5.05,54.663,54.663,0,0,1,3.145,8.078,103.375,103.375,0,0,1,2.517,10.309c.688,3.694,1.344,7.211,1.941,10.417s1.236,6.059,1.866,8.437,1.223,4.278,1.677,5.577c.214.654.413,1.15.528,1.495A2.946,2.946,0,0,1,410.9,417.461Z" transform="translate(-394.818 -365.865)"/></g><g transform="translate(2.014 32.638)"><path class="e" d="M390.339,387.984c.024.1-.545.33-1.272.507s-1.337.236-1.362.132.544-.33,1.271-.507S390.313,387.881,390.339,387.984Z" transform="translate(-387.704 -387.934)"/></g><g transform="translate(0 25.345)"><path class="e" d="M388.7,378.909a12.937,12.937,0,0,1-3.54.139,6.086,6.086,0,0,1,3.54-.139Z" transform="translate(-385.156 -378.708)"/></g><g transform="translate(2.422 17.07)"><path class="e" d="M390.517,370.192c-.069.081-.638-.288-1.27-.824s-1.089-1.037-1.021-1.118.637.288,1.27.824S390.586,370.112,390.517,370.192Z" transform="translate(-388.219 -368.239)"/></g><g transform="translate(7.586 12.984)"><path class="e" d="M395.078,363.071c.106.024.077.533.061,1.148s-.021,1.125-.127,1.142-.278-.495-.258-1.153S394.977,363.046,395.078,363.071Z" transform="translate(-394.752 -363.07)"/></g><g transform="translate(12.961 15.824)"><path class="c" d="M403.026,366.669c.087.061-.169.576-.571,1.151s-.8.991-.886.93.168-.576.571-1.151S402.939,366.609,403.026,366.669Z" transform="translate(-401.552 -366.664)"/></g><g transform="translate(16.101 23.155)"><path class="c" d="M408.091,375.966c.04.1-.5.413-1.21.7s-1.315.443-1.356.345.5-.413,1.21-.7S408.051,375.868,408.091,375.966Z" transform="translate(-405.523 -375.937)"/></g><g transform="translate(17.768 30.728)"><path class="c" d="M411.1,385.541a4.836,4.836,0,0,1-3.469.786,6.937,6.937,0,0,1,1.725-.437A6.833,6.833,0,0,1,411.1,385.541Z" transform="translate(-407.633 -385.517)"/></g><g transform="translate(9.4 26.38)"><path class="e" d="M397.092,382.239c-.1-.032-.028-.555.164-1.168s.43-1.085.531-1.053.028.554-.164,1.168S397.194,382.271,397.092,382.239Z" transform="translate(-397.047 -380.017)"/></g><g transform="translate(11.066 35.108)"><path class="e" d="M399.179,394.052a3.628,3.628,0,0,1,.474-1.572c.359-.827.729-1.462.826-1.42a3.613,3.613,0,0,1-.473,1.573C399.647,393.459,399.277,394.094,399.179,394.052Z" transform="translate(-399.155 -391.057)"/></g><g transform="translate(4.092 39.739)"><path class="e" d="M393.267,397.88a3.8,3.8,0,0,1-1.507-.331c-.8-.252-1.451-.481-1.428-.587a2.827,2.827,0,0,1,1.542.219C392.7,397.437,393.307,397.783,393.267,397.88Z" transform="translate(-390.332 -396.916)"/></g><g transform="translate(7.137 48.433)"><path class="e" d="M396.417,407.93c.062.086-.387.512-1,.951s-1.163.724-1.224.638.387-.513,1-.952S396.355,407.844,396.417,407.93Z" transform="translate(-394.185 -407.915)"/></g><g transform="translate(8.679 56.12)"><path class="e" d="M398.7,417.689c.025.1-.53.327-1.239.5s-1.3.228-1.33.126.53-.327,1.239-.5S398.679,417.587,398.7,417.689Z" transform="translate(-396.135 -417.638)"/></g><g transform="translate(19.017 37.18)"><path class="c" d="M411.64,393.7c.053.089-.421.467-1.111.727s-1.3.29-1.315.187.523-.3,1.179-.548S411.585,393.608,411.64,393.7Z" transform="translate(-409.213 -393.679)"/></g><g transform="translate(20.538 48.08)"><path class="c" d="M413.5,408.6c-.046.1-.61-.074-1.262-.381s-1.143-.633-1.1-.729.609.074,1.262.381S413.545,408.509,413.5,408.6Z" transform="translate(-411.137 -407.468)"/></g><g transform="translate(22.279 56.539)"><path class="c" d="M416.533,419.444a3.983,3.983,0,0,1-1.666-.446c-.881-.345-1.564-.706-1.526-.8a7.717,7.717,0,0,1,3.192,1.251Z" transform="translate(-413.339 -418.168)"/></g><g transform="translate(11.657 62.254)"><path class="c" d="M399.905,427.694c-.052-.1.634-.558,1.427-1.184s1.406-1.18,1.488-1.106-.424.762-1.251,1.409A3.456,3.456,0,0,1,399.905,427.694Z" transform="translate(-399.902 -425.398)"/></g><g transform="translate(17.475 57.672)"><path class="c" d="M408.245,422.108c-.109.013-.257-.564-.519-1.236s-.536-1.2-.447-1.265.526.4.806,1.126S408.347,422.1,408.245,422.108Z" transform="translate(-407.262 -419.602)"/></g><g transform="translate(14.912 48.572)"><path class="c" d="M405.764,409.356c-.062.086-.5-.122-.981-.467s-.818-.693-.756-.779.5.122.98.467S405.825,409.27,405.764,409.356Z" transform="translate(-404.02 -408.09)"/></g><g transform="translate(30.357 33.619)"><path class="c" d="M425.7,389.19c.063.085-.364.508-.955.944s-1.121.719-1.183.634.364-.508.955-.944S425.64,389.1,425.7,389.19Z" transform="translate(-423.558 -389.175)"/></g><g transform="translate(31.979 39.806)"><path class="c" d="M428.522,397.358c.01.1-.66.244-1.488.153s-1.453-.368-1.421-.466.674,0,1.462.084S428.513,397.249,428.522,397.358Z" transform="translate(-425.611 -397)"/></g><g transform="translate(21.79 41.564)"><path class="c" d="M415.556,399.288c.023.1-.6.324-1.4.375s-1.445-.083-1.436-.187.641-.144,1.41-.2S415.533,399.182,415.556,399.288Z" transform="translate(-412.721 -399.225)"/></g><g transform="translate(23.167 34.371)"><path class="c" d="M416.8,391.21c-.007.1-.634.119-1.319-.2s-1.084-.8-1.011-.872.545.239,1.172.523S416.816,391.1,416.8,391.21Z" transform="translate(-414.463 -390.126)"/></g><g transform="translate(33.106 45.481)"><path class="c" d="M429.7,405.871c-.056.09-.7-.212-1.433-.674s-1.284-.911-1.228-1,.7.213,1.433.675S429.758,405.782,429.7,405.871Z" transform="translate(-427.036 -404.18)"/></g><g transform="translate(5.608 65.494)"><g transform="translate(0.443)"><rect class="l" width="54.768" height="9.707"/></g><g transform="translate(4.533 7.781)"><path class="l" d="M397.985,439.34l6.66,29.008h32.642l7.286-29.008Z" transform="translate(-397.985 -439.34)"/></g><g transform="translate(0 9.527)"><path class="c" d="M447.431,441.74c0,.107-12.353.193-27.589.193s-27.592-.086-27.592-.193,12.351-.192,27.592-.192S447.431,441.634,447.431,441.74Z" transform="translate(-392.25 -441.548)"/></g></g><g transform="translate(28.966 39.682)"><path class="c" d="M423.163,399c-.09.057-.464-.379-.836-.974s-.6-1.122-.51-1.179.465.379.836.975S423.253,398.945,423.163,399Z" transform="translate(-421.798 -396.844)"/></g><g transform="translate(30.317 46.822)"><path class="c" d="M423.542,408.7c-.1-.034.027-.693.286-1.474s.551-1.386.652-1.352-.028.693-.287,1.473S423.642,408.737,423.542,408.7Z" transform="translate(-423.507 -405.876)"/></g><g transform="translate(31.523 54.752)"><path class="c" d="M426.534,419c-.1.046-.505-.609-.914-1.464a4,4,0,0,1-.567-1.63c.1-.046.505.609.914,1.464A3.985,3.985,0,0,1,426.534,419Z" transform="translate(-425.033 -415.908)"/></g><g transform="translate(27.228 62.42)"><path class="c" d="M419.612,427.633c-.081-.07.247-.578.73-1.134s.941-.953,1.021-.883-.246.578-.73,1.135S419.692,427.7,419.612,427.633Z" transform="translate(-419.6 -425.608)"/></g><g transform="translate(23.738 51.99)"><path class="c" d="M417.473,412.892c-.018.1-.545.1-1.177-.013s-1.129-.287-1.11-.391.545-.1,1.177.013S417.491,412.787,417.473,412.892Z" transform="translate(-415.185 -412.413)"/></g></g></g></svg>